<svg width="142" height="33" fill="none" xmlns="http://www.w3.org/2000/svg"><path d="M.9 6.7v26h3.7V13.8h.2l7.7 18.7h3l7.7-18.7h.2v18.7h3.7V6.7h-4.7l-8.2 20.1h-.4l-8.2-20H1ZM40.9 33c4.2 0 7.2-2 8-5.2l-3.5-.7C44.7 29 43 30 40.9 30c-3.2 0-5.4-2.1-5.5-5.9h13.8v-1.3c0-7-4.2-9.7-8.6-9.7-5.4 0-9 4-9 10s3.5 10 9.3 10Zm-5.5-11.8c.2-2.7 2.2-5.1 5.2-5.1s4.9 2.1 4.9 5.1H35.4ZM68 18c-.9-3-3.2-5-7.4-5-4.4 0-7.5 2.3-7.5 5.7 0 2.8 1.7 4.6 5.3 5.4l3.3.7c1.8.4 2.7 1.3 2.7 2.5 0 1.5-1.6 2.7-4 2.7-2.3 0-3.8-1-4.2-3l-3.7.6c.6 3.5 3.5 5.4 7.9 5.4 4.6 0 7.9-2.5 7.9-6 0-2.7-1.7-4.4-5.3-5.3l-3-.7c-2.2-.5-3.1-1.2-3.1-2.5 0-1.5 1.6-2.6 3.7-2.6 2.4 0 3.5 1.3 3.9 2.6l3.4-.6ZM81.5 13.2h-4V8.6h-3.8v4.6H71v3h2.8v11.5c0 3.5 2.7 5.2 5.7 5.2 1.2 0 2-.3 2.5-.4l-.7-3.2-1.3.2c-1.3 0-2.4-.4-2.4-2.6V16.2h4v-3ZM93.6 33c5.5 0 9-4 9-10s-3.5-10-9-10c-5.4 0-9 4-9 10s3.6 10 9 10Zm0-3.2c-3.5 0-5.2-3-5.2-6.8 0-3.7 1.7-6.9 5.3-6.9 3.5 0 5.2 3.2 5.2 6.9s-1.7 6.8-5.2 6.8ZM106.8 8.9h1V5.5h2.1l1.9 3.4h1.2l-2-3.6c1.1-.3 1.6-1.2 1.6-2.4 0-1.5-.9-2.6-2.9-2.6h-3v8.6Zm1-4.3V1.2h1.9c1.4 0 1.9.7 1.9 1.7s-.5 1.7-2 1.7h-1.8ZM118.3 6.2c0 1.3-1 1.8-1.7 1.8-.8 0-1.4-.6-1.4-1.5v-4h-1v4c0 1.7 1 2.5 2.1 2.5a2 2 0 0 0 2-1.2v1h1V2.5h-1v3.8ZM125.7 3.9c-.3-1-1-1.6-2.3-1.6-1.3 0-2.4.8-2.4 2 0 .8.6 1.4 1.8 1.7l1 .2c.7.2 1 .5 1 1s-.6 1-1.5 1c-.8 0-1.3-.4-1.5-1l-1 .1c.3 1.1 1.2 1.7 2.5 1.7 1.5 0 2.5-.8 2.5-2 0-.8-.5-1.4-1.7-1.7l-1-.2c-.7-.2-1-.4-1-1 0-.5.5-.9 1.3-.9.9 0 1.2.5 1.4 1l1-.3ZM131.9 3.9c-.3-1-1-1.6-2.3-1.6-1.4 0-2.4.8-2.4 2 0 .8.6 1.4 1.8 1.7l1 .2c.7.2 1 .5 1 1s-.6 1-1.5 1c-.8 0-1.3-.4-1.5-1l-1 .1c.3 1.1 1.2 1.7 2.5 1.7 1.5 0 2.5-.8 2.5-2 0-.8-.5-1.4-1.7-1.7l-1-.2c-.7-.2-1-.4-1-1 0-.5.5-.9 1.3-.9.9 0 1.2.5 1.4 1l.9-.3ZM133.5 8.9h1V2.4h-1V9Zm.5-7.6c.4 0 .7-.3.7-.6 0-.4-.3-.7-.7-.7-.4 0-.7.3-.7.7 0 .3.3.6.7.6ZM138.2 9c1.2 0 1.8-.6 2-1V9h1V4.6c0-2-1.6-2.3-2.4-2.3-1 0-2 .4-2.6 1.6l1 .3c.2-.5.7-1 1.6-1 1 0 1.4.5 1.4 1.3 0 .5-.5.5-1.7.7-1.2.1-2.5.4-2.5 1.9 0 1.2 1 2 2.2 2Zm.2-.8c-.8 0-1.4-.4-1.4-1 0-.9.7-1 1.5-1.2.4 0 1.5-.2 1.7-.4v1c0 .8-.6 1.6-1.8 1.6Z" fill="#fff"/></svg>